<svg width="48" height="48" viewBox="0 0 64 64" fill="none" xmlns="http://www.w3.org/2000/svg">
<path d="M35.0704 22.0554H29.5535C26.2512 22.0554 23.5696 24.7371 23.5696 28.0393V39.3098C23.5696 41.0888 25.016 42.5353 26.7951 42.5353H37.8353C39.6143 42.5353 41.0608 41.0889 41.0608 39.3098V28.0398C41.0608 24.7371 38.3728 22.0554 35.0706 22.0554H35.0704ZM38.1552 27.7706V33.5626C38.1552 34.1836 37.6561 34.6827 37.0351 34.6827H27.5887C26.9744 34.6827 26.4686 34.1836 26.4686 33.5626V27.7706C26.4686 26.2027 27.7423 24.9224 29.3168 24.9224H35.3137C36.8816 24.9228 38.1552 26.2027 38.1552 27.7706H38.1552ZM27.5824 37.4732C28.1967 37.4732 28.6895 37.9599 28.6895 38.5674C28.6895 39.1755 28.1967 39.6616 27.5824 39.6616C26.9681 39.6616 26.469 39.175 26.469 38.5674C26.4685 37.9594 26.9676 37.4732 27.5824 37.4732ZM37.0475 39.662C36.4332 39.662 35.9341 39.1754 35.9341 38.5679C35.9341 37.9598 36.4332 37.4737 37.0475 37.4737C37.6618 37.4737 38.1547 37.9603 38.1547 38.5679C38.1551 39.1754 37.6623 39.662 37.0475 39.662Z" fill="currentColor"/>
<path fill-rule="evenodd" clip-rule="evenodd" d="M31.9878 0C14.3454 0 0 14.332 0 31.9878C0 49.6721 14.3454 64 31.9878 64C49.6302 64 64 49.6721 64 31.9878C64 14.3306 49.6302 0 31.9878 0V0ZM28.386 4.57629C28.4336 4.57417 28.4806 4.57417 28.5282 4.57629C29.3655 4.53077 30.0816 5.17281 30.1271 6.01125C30.1732 6.84913 29.5316 7.56585 28.6938 7.61179C19.8014 8.82177 12.419 14.7462 9.16941 22.8354V22.8348C9.03084 23.2218 8.74152 23.5362 8.36759 23.7055C7.99366 23.8754 7.56683 23.8855 7.18444 23.7347C6.80258 23.5838 6.49846 23.2842 6.34084 22.9047C6.18376 22.5252 6.18694 22.0975 6.34984 21.7207C10.0008 12.6315 18.3077 5.95914 28.2911 4.60006C28.3223 4.59106 28.354 4.58312 28.3858 4.57624L28.386 4.57629ZM31.9878 17.3335C40.0498 17.3335 46.6311 23.9195 46.6311 31.9879C46.6311 40.0814 40.0501 46.6424 31.9878 46.6424C23.9253 46.6424 17.3675 40.0817 17.3675 31.9879C17.3675 23.9192 23.9249 17.3335 31.9878 17.3335V17.3335ZM52.6726 38.8646V38.8652C52.7281 38.862 52.7831 38.862 52.8387 38.8652C53.3559 38.8482 53.8462 39.0965 54.1392 39.5241C54.4317 39.9513 54.4862 40.4986 54.2836 40.9755C51.6968 47.3716 46.4469 52.3962 39.9003 54.6815L39.9008 54.682C39.109 54.9567 38.2449 54.537 37.9698 53.7451C37.6953 52.9528 38.1141 52.0879 38.9054 51.8126C44.6201 49.8176 49.2031 45.4266 51.4636 39.8377C51.6582 39.3163 52.1215 38.9431 52.6721 38.8653L52.6726 38.8646Z" fill="currentColor"/>
</svg>
