<svg width="18" height="21" viewBox="0 0 18 21" fill="none" xmlns="http://www.w3.org/2000/svg">
<path d="M11.5008 0H5.98389C2.6816 0 0 2.68172 0 5.98389V17.2544C0 19.0334 1.4464 20.4799 3.22548 20.4799H14.2657C16.0447 20.4799 17.4912 19.0335 17.4912 17.2544V5.98434C17.4912 2.68171 14.8032 0 11.501 0H11.5008ZM14.5856 5.7152V11.5072C14.5856 12.1282 14.0865 12.6273 13.4655 12.6273H4.01911C3.40482 12.6273 2.89902 12.1282 2.89902 11.5072V5.7152C2.89902 4.14732 4.17273 2.86697 5.74724 2.86697H11.7442C13.312 2.86742 14.5856 4.14732 14.5856 5.7152H14.5856ZM4.0128 15.4178C4.62709 15.4178 5.11994 15.9044 5.11994 16.512C5.11994 17.1201 4.62709 17.6062 4.0128 17.6062C3.39851 17.6062 2.89941 17.1196 2.89941 16.512C2.89896 15.904 3.39807 15.4178 4.0128 15.4178ZM13.4779 17.6066C12.8637 17.6066 12.3645 17.12 12.3645 16.5124C12.3645 15.9044 12.8637 15.4182 13.4779 15.4182C14.0922 15.4182 14.5851 15.9048 14.5851 16.5124C14.5855 17.12 14.0927 17.6066 13.4779 17.6066Z" fill="white"/>
</svg>
